<svg width="63" height="36" viewBox="0 0 63 36" fill="none" xmlns="http://www.w3.org/2000/svg">
<path d="M0.968018 1.40004H15.368V6.20004H6.24802V15.08H13.496V19.88H6.24802V30.2H15.368V35H0.968018V1.40004Z" fill="white" fill-opacity="0.7"/>
<path d="M23.2055 1.40004H31.1735C33.8935 1.40004 35.8775 2.04004 37.1255 3.32004C38.3735 4.56804 38.9975 6.50404 38.9975 9.12804V10.472C38.9975 12.2 38.7095 13.608 38.1335 14.696C37.5895 15.784 36.7415 16.568 35.5895 17.048V17.144C38.2135 18.04 39.5255 20.376 39.5255 24.152V27.032C39.5255 29.624 38.8375 31.608 37.4615 32.984C36.1175 34.328 34.1335 35 31.5095 35H23.2055V1.40004ZM30.5495 15.08C31.6055 15.08 32.3895 14.808 32.9015 14.264C33.4455 13.72 33.7175 12.808 33.7175 11.528V9.65605C33.7175 8.44004 33.4935 7.56004 33.0455 7.01605C32.6295 6.47204 31.9575 6.20004 31.0295 6.20004H28.4855V15.08H30.5495ZM31.5095 30.2C32.4375 30.2 33.1255 29.96 33.5735 29.48C34.0215 28.968 34.2455 28.104 34.2455 26.888V23.96C34.2455 22.424 33.9735 21.368 33.4295 20.792C32.9175 20.184 32.0535 19.88 30.8375 19.88H28.4855V30.2H31.5095Z" fill="white" fill-opacity="0.7"/>
<path d="M54.2758 35.48C51.7158 35.48 49.7798 34.76 48.4678 33.32C47.1558 31.848 46.4998 29.752 46.4998 27.032V25.112H51.4918V27.416C51.4918 29.592 52.4038 30.68 54.2278 30.68C55.1238 30.68 55.7958 30.424 56.2438 29.912C56.7238 29.368 56.9638 28.504 56.9638 27.32C56.9638 25.912 56.6438 24.68 56.0038 23.624C55.3638 22.536 54.1798 21.24 52.4518 19.736C50.2758 17.816 48.7558 16.088 47.8918 14.552C47.0278 12.984 46.5958 11.224 46.5958 9.27205C46.5958 6.61604 47.2678 4.56804 48.6118 3.12804C49.9558 1.65604 51.9078 0.920044 54.4678 0.920044C56.9958 0.920044 58.8998 1.65604 60.1798 3.12804C61.4918 4.56804 62.1478 6.64804 62.1478 9.36804V10.76H57.1558V9.03205C57.1558 7.88004 56.9318 7.04804 56.4838 6.53604C56.0358 5.99204 55.3798 5.72005 54.5158 5.72005C52.7558 5.72005 51.8758 6.79204 51.8758 8.93604C51.8758 10.152 52.1958 11.288 52.8358 12.344C53.5078 13.4 54.7078 14.68 56.4358 16.184C58.6438 18.104 60.1638 19.848 60.9958 21.416C61.8278 22.984 62.2438 24.824 62.2438 26.936C62.2438 29.688 61.5558 31.8 60.1798 33.272C58.8358 34.744 56.8678 35.48 54.2758 35.48Z" fill="white" fill-opacity="0.7"/>
</svg>
